<svg xmlns="http://www.w3.org/2000/svg" version="1.1" xmlns:xlink="http://www.w3.org/1999/xlink" xmlns:svgjs="http://svgjs.dev/svgjs" width="1500" height="1500" viewBox="0 0 1500 1500"><rect width="1500" height="1500" fill="#000000"></rect><g transform="matrix(0.6666666666666666,0,0,0.6666666666666666,249.39393939393938,438.58569500674764)"><svg viewBox="0 0 396 247" data-background-color="#ffffff" preserveAspectRatio="xMidYMid meet" height="935" width="1500" xmlns="http://www.w3.org/2000/svg" xmlns:xlink="http://www.w3.org/1999/xlink"><g id="tight-bounds" transform="matrix(1,0,0,1,0.2400000000000091,-0.09999999999999432)"><svg viewBox="0 0 395.52 247.2" height="247.2" width="395.52"><g><svg></svg></g><g><svg viewBox="0 0 395.52 247.2" height="247.2" width="395.52"><g transform="matrix(1,0,0,1,75.54432,52.57268759794077)"><svg viewBox="0 0 244.43135999999998 142.05462480411845" height="142.05462480411845" width="244.43135999999998"><g><svg viewBox="0 0 245.65351679999995 142.76489792813902" height="142.05462480411845" width="244.43135999999998"><g><rect width="245.65351679999995" height="2.585931478882542" x="0" y="80.24408066918132" fill="#ffffff" opacity="1" stroke-width="0" stroke="transparent" fill-opacity="1" class="rect-qz-0" data-fill-palette-color="secondary" rx="1%" id="qz-0" data-palette-color="#61777f"></rect></g><g transform="matrix(1,0,0,1,0.6110783999999825,89.59946628126423)"><svg viewBox="0 0 244.43135999999998 53.16543164687478" height="53.16543164687478" width="244.43135999999998"><g id="textblocktransform"><svg viewBox="0 0 244.43135999999998 53.16543164687478" height="53.16543164687478" width="244.43135999999998" id="textblock"><g><svg viewBox="0 0 244.43135999999998 28.674893395348832" height="28.674893395348832" width="244.43135999999998"><g transform="matrix(1,0,0,1,0,0)"><svg width="244.43135999999998" viewBox="3.6 -33.75 290.21999999999997 34.05" height="28.674893395348832" data-palette-color="#000000"><path d="M32.45-31.6Q33.15-31.6 34.18-30.68 35.2-29.75 35.2-29.1L35.2-29.1Q35.2-26.05 35-20.75L35-20.75Q34.95-19.45 34.9-17.63 34.85-15.8 34.85-13.4L34.85-13.4Q34.85-5.8 35.75-2.2L35.75-2.2Q35.7-1 34.8-0.48 33.9 0.05 33 0.05L33 0.05Q31 0.05 30.38-1.35 29.75-2.75 29.75-5.35L29.75-5.35Q29.75-15 29.95-23.1L29.95-23.1Q24.2-16.7 21-12.35L21-12.35Q21-12.35 20.1-11.75L20.1-11.75Q19.25-11 18.7-11L18.7-11Q17.4-11 16.55-11.65 15.7-12.3 14.9-13.55L14.9-13.55 12.5-16.95Q10-20.45 8.85-22.25L8.85-22.25Q8.85-17.65 9.3-9.75L9.3-9.75Q9.65-5.2 9.65-2.9L9.65-2.9Q9.65-1.7 9.05-0.88 8.45-0.05 7.15-0.05L7.15-0.05Q5.85-0.05 5.03-0.55 4.2-1.05 4.15-2.05L4.15-2.05Q4.2-2.9 4.2-4.85L4.2-4.85Q4.2-8.75 3.95-14.35L3.95-14.35 3.85-17.05 3.75-20.55Q3.7-22.1 3.65-24.18 3.6-26.25 3.6-28.7L3.6-28.7Q3.6-31.7 6.85-31.7L6.85-31.7Q7.85-31.7 8.88-31.2 9.9-30.7 10.4-29.75L10.4-29.75Q10.8-28 13.35-23.95 15.9-19.9 18.35-16.35L18.35-16.35Q20.55-19.15 21.95-20.55L21.95-20.55Q24.35-23 25.93-25.1 27.5-27.2 29.35-30.15L29.35-30.15Q29.8-30.75 30.65-31.18 31.5-31.6 32.45-31.6L32.45-31.6ZM64.7-2.4Q64.7-1.3 63.52-0.55 62.35 0.2 61.35 0.2L61.35 0.2Q59.45 0.2 58.32-0.28 57.2-0.75 56.25-2.05L56.25-2.05Q54.95-0.9 52.7-0.33 50.45 0.25 48.55 0.25L48.55 0.25Q45.45 0.25 43.45-1.43 41.45-3.1 41.45-6.35L41.45-6.35Q41.45-7.75 42.2-8.93 42.95-10.1 44.25-11L44.25-11Q45.7-11.95 47.55-12.48 49.4-13 51.4-13L51.4-13Q52.45-13 53.9-12.6 55.35-12.2 56.15-11.75L56.15-11.75 56.15-12.55Q56.15-15.25 54.85-16.28 53.55-17.3 50.65-17.3L50.65-17.3Q49.8-17.3 48.97-16.95 48.15-16.6 47.1-16L47.1-16Q45.7-15.25 44.45-15.25L44.45-15.25Q44-15.25 43.6-15.88 43.2-16.5 43.2-17L43.2-17Q43.2-18.45 44.57-19.5 45.95-20.55 47.85-21.08 49.75-21.6 51.25-21.6L51.25-21.6Q52.75-21.6 54.7-21.03 56.65-20.45 57.9-19.45L57.9-19.45Q59.4-18.15 60.22-16.43 61.05-14.7 61.05-12.65L61.05-12.65Q61.05-12 60.95-10.7L60.95-10.7Q60.85-9.3 60.85-8.3L60.85-8.3Q60.85-7.85 60.75-6.95L60.75-6.95Q60.65-5.85 60.65-5.2L60.65-5.2Q60.65-4.6 61.1-4.17 61.55-3.75 62.15-3.75L62.15-3.75 63.55-3.8Q64.1-3.8 64.4-3.4 64.7-3 64.7-2.4L64.7-2.4ZM48.6-3.7Q50.75-3.7 52.2-4.15 53.65-4.6 55.7-5.8L55.7-5.8Q55.9-6.65 55.95-8.05L55.95-8.05Q53.2-9.35 51.4-9.35L51.4-9.35Q49.35-9.35 47.75-8.6 46.15-7.85 46.15-5.95L46.15-5.95Q46.15-5 46.95-4.35 47.75-3.7 48.6-3.7L48.6-3.7ZM69.2-9Q69.2-11.8 69.25-13.25L69.25-13.25 69.3-18Q69.3-20.9 69.15-24.35L69.15-24.35Q69.1-25.4 68.8-27.25L68.8-27.25Q68.4-30.05 68.4-31.45L68.4-31.45Q68.4-33.75 70.7-33.75L70.7-33.75Q72.15-33.75 72.77-32.98 73.4-32.2 73.65-30.55L73.65-30.55Q74.15-27.1 74.15-22.45L74.15-22.45Q74.15-21.05 74.05-18.25L74.05-18.25Q75-19.75 76.52-20.6 78.05-21.45 79.55-21.45L79.55-21.45Q83.9-21.45 87.05-17.85L87.05-17.85Q87.9-16.6 88.57-14.88 89.25-13.15 89.25-11.9L89.25-11.9Q89.25-9.7 88.77-7.85 88.3-6 87.1-4.25L87.1-4.25Q85.9-2.5 84.07-1.4 82.25-0.3 79.85-0.3L79.85-0.3Q77.75-0.3 76.07-1.15 74.4-2 73.4-3.4L73.4-3.4Q73.15-2.15 72.3-0.93 71.45 0.3 70.35 0.3L70.35 0.3Q69.45 0.3 68.85-0.18 68.25-0.65 68.25-1.6L68.25-1.6Q68.25-2.3 68.55-3.35L68.55-3.35Q68.85-4.8 69.02-6.03 69.2-7.25 69.2-9L69.2-9ZM78.6-4.45Q81.05-4.45 82.7-6.18 84.35-7.9 84.35-10.85L84.35-10.85Q84.35-13.55 82.9-15.5L82.9-15.5Q82.4-16.15 81.47-16.55 80.55-16.95 79.65-16.95L79.65-16.95Q77.55-16.95 76.1-15.73 74.65-14.5 74.45-12.35L74.45-12.35Q74.25-9.45 74.25-7.35L74.25-7.35Q74.85-6.2 76.07-5.33 77.3-4.45 78.6-4.45L78.6-4.45ZM93.04-16.85Q92.64-16.85 92.32-17.18 91.99-17.5 91.99-17.95L91.99-17.95Q91.99-19.1 92.99-20.1L92.99-20.1Q93.29-20.25 94.19-20.6 95.09-20.95 95.79-20.95L95.79-20.95Q97.69-20.95 98.89-19.93 100.09-18.9 100.09-17L100.09-17Q100.09-16.45 99.89-14.65L99.89-14.65Q99.69-12.55 99.69-11.4L99.69-11.4Q99.69-7.9 100.64-5.75L100.64-5.75Q100.99-5.05 101.74-4.65 102.49-4.25 103.09-4.25L103.09-4.25Q104.54-4.25 105.44-4.75 106.34-5.25 107.39-6.35L107.39-6.35Q108.44-7.45 108.77-8.85 109.09-10.25 109.24-12.7L109.24-12.7Q109.34-14.3 109.44-15.05L109.44-15.05Q109.69-17.45 109.69-19.15L109.69-19.15Q109.69-20.25 110.29-20.98 110.89-21.7 111.94-21.7L111.94-21.7Q112.54-21.7 113.32-21.33 114.09-20.95 114.34-20.45L114.34-20.45Q114.64-19.95 114.64-18.8L114.64-18.8Q114.64-18.2 114.49-17.65L114.49-17.65Q114.14-16.4 114.14-14.65L114.14-14.65 114.19-12.05Q114.19-8.5 114.69-6.8L114.69-6.8Q114.94-6 115.39-5.18 115.84-4.35 116.24-3.8L116.24-3.8Q117.24-2.7 117.54-2.27 117.84-1.85 117.84-1.45L117.84-1.45Q117.84-0.85 117.27-0.33 116.69 0.2 116.04 0.2L116.04 0.2Q114.19 0.2 112.84-1.05 111.49-2.3 110.84-4.3L110.84-4.3Q109.14-2.35 107.69-1.15L107.69-1.15Q106.69-0.45 105.24-0.13 103.79 0.2 102.34 0.2L102.34 0.2Q100.39 0.2 98.39-1.4 96.39-3 95.69-5.1L95.69-5.1Q95.64-5.2 95.42-5.9 95.19-6.6 95.19-8L95.19-8Q95.19-9.85 95.39-12.65L95.39-12.65Q95.54-14.45 95.54-15.95L95.54-15.95Q95.54-16.4 95.22-16.7 94.89-17 94.49-17L94.49-17Q94.19-17 93.82-16.93 93.44-16.85 93.04-16.85L93.04-16.85ZM125.49 0.2Q124.49 0.2 123.79-0.15 123.09-0.5 122.94-0.9L122.94-0.9Q122.39-2.9 122.39-6.15L122.39-6.15Q122.39-12.15 122.59-15.9L122.59-15.9Q122.79-20.35 122.79-24.45L122.79-24.45Q122.79-25.65 122.49-27.95L122.49-27.95Q122.44-28.35 122.34-29.4 122.24-30.45 122.24-31.35L122.24-31.35Q122.24-32.45 123.02-33.1 123.79-33.75 125.04-33.75L125.04-33.75Q126.04-33.75 126.67-33.13 127.29-32.5 127.29-31.45L127.29-31.45Q127.29-29.85 127.39-26.95L127.39-26.95Q127.49-24.25 127.49-22.9L127.49-22.9Q127.49-21.4 127.39-18.9L127.39-18.9Q127.29-17.4 127.29-16.7L127.29-16.7Q127.29-14.5 127.34-13.05L127.34-13.05Q129.19-14.9 132.19-17.4 135.19-19.9 136.84-20.9L136.84-20.9Q138.59-21.95 139.14-21.95L139.14-21.95Q140.19-21.95 140.94-21.5 141.69-21.05 141.69-20.2L141.69-20.2Q141.69-19.35 141.44-18.85 141.19-18.35 140.54-17.85L140.54-17.85 134.09-13.15Q135.19-12.6 135.97-11.75 136.74-10.9 137.54-9.65L137.54-9.65Q139.24-6.85 140.27-5.55 141.29-4.25 142.14-4.25L142.14-4.25 143.39-4.3Q143.74-4.3 144.02-3.9 144.29-3.5 144.29-2.75L144.29-2.75Q144.29-1.6 143.17-0.9 142.04-0.2 140.64-0.2L140.64-0.2Q138.69-0.2 137.19-1.73 135.69-3.25 134.34-5.85L134.34-5.85Q132.39-9.55 130.49-10.25L130.49-10.25 127.29-7.65 127.49-2.2Q127.49-0.9 126.82-0.35 126.14 0.2 125.49 0.2L125.49 0.2ZM167.29-16.05Q167.69-15.35 167.94-14.03 168.19-12.7 168.19-11.65L168.19-11.65Q168.19-9.7 167.34-6.1L167.34-6.1Q163.89 0.2 157.14 0.2L157.14 0.2Q154.64 0.2 152.04-1.45 149.44-3.1 148.44-5.25L148.44-5.25Q147.09-9.55 147.09-10.7L147.09-10.7Q147.09-12.7 147.96-14.95 148.84-17.2 150.19-18.85L150.19-18.85Q151.04-20 153.24-20.83 155.44-21.65 157.24-21.65L157.24-21.65Q160.74-21.65 163.19-20.33 165.64-19 167.29-16.05L167.29-16.05ZM162.94-8Q163.19-8.65 163.19-11.35L163.19-11.35Q163.19-12.8 162.66-14.2 162.14-15.6 161.14-16.6L161.14-16.6Q161.04-16.7 160.59-16.93 160.14-17.15 159.36-17.38 158.59-17.6 157.59-17.6L157.59-17.6Q154.79-17.6 153.49-15.35 152.19-13.1 152.19-10.25L152.19-10.25Q152.19-9.75 152.46-8.35 152.74-6.95 152.94-6.6L152.94-6.6Q153.09-6.25 153.71-5.63 154.34-5 155.26-4.53 156.19-4.05 157.19-4.05L157.19-4.05Q159.44-4.05 160.79-5.13 162.14-6.2 162.94-8L162.94-8ZM174.94-32.75Q177.79-32.75 177.79-29.5L177.79-29.5Q177.79-28.6 177.44-26.25L177.44-26.25 177.14-24.05Q176.99-21.5 176.79-20.9L176.79-20.9Q176.64-20.55 176.14-20.18 175.64-19.8 175.04-19.8L175.04-19.8Q174.34-19.8 173.89-20.25 173.44-20.7 173.29-22L173.29-22Q173.19-22.7 172.89-26L172.89-26Q172.44-27.8 172.44-29.85L172.44-29.85Q172.44-32.75 174.94-32.75L174.94-32.75ZM205.83-9.05Q205.83-6.7 204.76-5.03 203.68-3.35 201.23-1.95L201.23-1.95Q199.58-0.95 197.38-0.45 195.18 0.05 192.93 0.05L192.93 0.05Q190.63 0.05 187.23-1.45L187.23-1.45Q184.78-2.65 183.36-4.3 181.93-5.95 181.93-7.9L181.93-7.9Q181.93-9.25 182.53-9.88 183.13-10.5 184.48-10.5L184.48-10.5Q185.18-10.5 185.93-9.93 186.68-9.35 186.83-8.8L186.83-8.8Q187.53-6.75 189.28-5.68 191.03-4.6 193.63-4.6L193.63-4.6Q196.63-4.6 198.66-5.7 200.68-6.8 200.68-8.65L200.68-8.65Q200.68-10.45 198.48-11.85 196.28-13.25 193.98-13.8L193.98-13.8Q190.68-14.7 188.13-15.95L188.13-15.95Q185.48-17.25 184.18-19.15 182.88-21.05 182.88-23.15L182.88-23.15Q182.88-25.1 184.23-27.13 185.58-29.15 187.43-30.05L187.43-30.05Q188.43-30.55 190.86-31.13 193.28-31.7 194.38-31.7L194.38-31.7Q195.83-31.7 197.58-31.35 199.33-31 200.43-30.35L200.43-30.35Q202.63-29.1 203.68-28.1 204.73-27.1 204.73-25.6L204.73-25.6Q204.73-24.7 204.06-24 203.38-23.3 201.73-23.3L201.73-23.3Q201.33-23.3 200.93-23.65 200.53-24 199.93-24.7L199.93-24.7Q199.13-25.75 198.38-26.1L198.38-26.1Q197.63-26.35 196.21-26.65 194.78-26.95 193.68-26.95L193.68-26.95Q192.48-26.95 191.18-26.45 189.88-25.95 189.01-25.03 188.13-24.1 188.13-22.9L188.13-22.9Q188.13-21.9 189.06-21.18 189.98-20.45 191.28-20L191.28-20Q192.78-19.4 194.53-18.95L194.53-18.95Q196.83-18.25 198.31-17.68 199.78-17.1 201.18-16.25L201.18-16.25Q203.63-14.8 204.73-13.28 205.83-11.75 205.83-9.05L205.83-9.05ZM212.93-17.1L210.53-17.3Q209.83-17.4 209.41-17.9 208.98-18.4 208.98-19.1L208.98-19.1Q208.98-19.45 209.16-19.85 209.33-20.25 209.68-20.55L209.68-20.55Q210.33-21.2 213.18-21.2L213.18-21.2Q213.58-23.15 213.58-25.15L213.58-25.15Q213.58-25.9 213.53-26.45 213.48-27 213.48-27.3L213.48-27.3Q213.48-28.4 214.31-28.95 215.13-29.5 216.18-29.5L216.18-29.5Q217.48-29.5 217.96-28.85 218.43-28.2 218.43-26.45L218.43-26.45Q218.43-23.85 217.98-21.35L217.98-21.35Q218.78-21.35 220.18-21.45L220.18-21.45Q222.08-21.55 222.93-21.55L222.93-21.55Q223.78-21.55 224.41-21.13 225.03-20.7 225.03-19.95L225.03-19.95Q225.03-18 223.28-17.65L223.28-17.65Q221.43-17.2 217.53-17.1L217.53-17.1Q217.38-15.15 217.38-12.85L217.38-12.85Q217.38-9.25 217.83-6.95L217.83-6.95Q218.13-5.35 218.86-4.63 219.58-3.9 221.03-3.9L221.03-3.9Q221.88-3.9 222.78-4.35L222.78-4.35Q223.38-4.7 223.88-4.7L223.88-4.7Q224.58-4.7 224.91-4.25 225.23-3.8 225.23-3.05L225.23-3.05Q225.23-1.65 223.73-0.73 222.23 0.2 219.88 0.2L219.88 0.2Q218.43 0.2 216.96-0.5 215.48-1.2 214.48-2.25L214.48-2.25Q214.33-2.4 213.93-3.4 213.53-4.4 213.23-5.55L213.23-5.55Q212.73-7.9 212.73-12.15L212.73-12.15Q212.73-14 212.93-17.1L212.93-17.1ZM249.13-16.05Q249.53-15.35 249.78-14.03 250.03-12.7 250.03-11.65L250.03-11.65Q250.03-9.7 249.18-6.1L249.18-6.1Q245.73 0.2 238.98 0.2L238.98 0.2Q236.48 0.2 233.88-1.45 231.28-3.1 230.28-5.25L230.28-5.25Q228.93-9.55 228.93-10.7L228.93-10.7Q228.93-12.7 229.8-14.95 230.68-17.2 232.03-18.85L232.03-18.85Q232.88-20 235.08-20.83 237.28-21.65 239.08-21.65L239.08-21.65Q242.58-21.65 245.03-20.33 247.48-19 249.13-16.05L249.13-16.05ZM244.78-8Q245.03-8.65 245.03-11.35L245.03-11.35Q245.03-12.8 244.5-14.2 243.98-15.6 242.98-16.6L242.98-16.6Q242.88-16.7 242.43-16.93 241.98-17.15 241.2-17.38 240.43-17.6 239.43-17.6L239.43-17.6Q236.63-17.6 235.33-15.35 234.03-13.1 234.03-10.25L234.03-10.25Q234.03-9.75 234.3-8.35 234.58-6.95 234.78-6.6L234.78-6.6Q234.93-6.25 235.55-5.63 236.18-5 237.1-4.53 238.03-4.05 239.03-4.05L239.03-4.05Q241.28-4.05 242.63-5.13 243.98-6.2 244.78-8L244.78-8ZM262.33-2Q262.33-1.15 261.68-0.5 261.03 0.15 260.08 0.15L260.08 0.15Q258.58 0.15 257.88-0.43 257.18-1 257.18-2.55L257.18-2.55Q257.18-4.4 257.08-7.4L257.08-7.4Q256.98-9.9 256.98-11.6L256.98-11.6Q256.98-12.4 257.08-13.7L257.08-13.7Q257.18-14.9 257.18-15.5L257.18-15.5Q257.03-16.45 256.43-17.07 255.83-17.7 254.88-17.7L254.88-17.7Q254.43-17.7 254.13-18.13 253.83-18.55 253.83-19L253.83-19Q253.83-20.15 254.75-20.75 255.68-21.35 256.98-21.35L256.98-21.35Q259.68-21.35 260.73-18.15L260.73-18.15Q262.03-19.65 263.7-20.58 265.38-21.5 266.93-21.5L266.93-21.5Q268.78-21.5 270.3-20.5 271.83-19.5 271.83-17.8L271.83-17.8Q271.83-16.85 271-15.85 270.18-14.85 269.33-14.85L269.33-14.85Q268.88-14.85 268.55-15.08 268.23-15.3 267.78-15.75L267.78-15.75Q267.28-16.25 266.93-16.48 266.58-16.7 266.13-16.7L266.13-16.7Q265.33-16.7 264.63-16.45 263.93-16.2 263.68-15.85L263.68-15.85Q262.88-14.6 262.5-13.6 262.13-12.6 262.13-11.45L262.13-11.45Q262.13-10.6 262.08-10.1L262.08-10.1 262.03-7.25Q262.03-6.6 262.08-5.8 262.13-5 262.18-4.6L262.18-4.6Q262.33-3.25 262.33-2L262.33-2ZM274.37-10.6Q274.37-12.5 275.07-14.43 275.77-16.35 276.92-17.95L276.92-17.95Q278.07-19.55 280.57-20.58 283.07-21.6 285.02-21.6L285.02-21.6Q287.02-21.6 289.1-21.05 291.17-20.5 291.97-19.35L291.97-19.35Q293.82-16.75 293.82-14.25L293.82-14.25Q293.82-12.9 293.25-11.95 292.67-11 291.62-9.9L291.62-9.9Q290.77-9 288.95-8.7 287.12-8.4 285.32-8.4L285.32-8.4Q284.17-8.4 282.52-8.63 280.87-8.85 279.32-9.2L279.32-9.2Q279.42-8.2 279.82-7.25 280.22-6.3 280.77-5.8L280.77-5.8Q281.77-4.85 282.85-4.6 283.92-4.35 285.62-4.35L285.62-4.35Q287.42-4.35 288.97-4.95L288.97-4.95Q290.22-5.4 291.02-5.4L291.02-5.4Q291.97-5.4 292.47-4.83 292.97-4.25 292.97-3.35L292.97-3.35Q292.97-2.1 291.52-1.3 290.07-0.5 288.2-0.13 286.32 0.25 285.17 0.25L285.17 0.25Q282.82 0.25 280.62-0.6 278.42-1.45 276.97-3L276.97-3Q275.77-4.4 275.07-6.38 274.37-8.35 274.37-10.6L274.37-10.6ZM285.27-17.35Q284.17-17.35 283.07-16.93 281.97-16.5 281.27-15.75L281.27-15.75Q280.37-14.8 280.05-14.23 279.72-13.65 279.62-12.65L279.62-12.65Q280.87-12.25 284.82-12.25L284.82-12.25Q286.97-12.25 288.15-12.9 289.32-13.55 289.32-14.6L289.32-14.6Q289.32-15.65 288.02-16.5 286.72-17.35 285.27-17.35L285.27-17.35Z" opacity="1" transform="matrix(1,0,0,1,0,0)" fill="#ffffff" class="wordmark-text-0" data-fill-palette-color="primary" id="text-0"></path></svg></g></svg></g><g transform="matrix(1,0,0,1,0,35.4443475285492)"><svg viewBox="0 0 244.43135999999998 17.721084118325578" height="17.721084118325578" width="244.43135999999998"><g transform="matrix(1,0,0,1,0,0)"><svg width="244.43135999999998" viewBox="7.1 -41.55 826.22 59.9" height="17.721084118325578" data-palette-color="#61777f"><path d="M7.1-9.8L7.1-9.8Q7.1-13.3 7.93-16.68 8.75-20.05 10.25-23.08 11.75-26.1 13.83-28.63 15.9-31.15 18.38-33 20.85-34.85 23.65-35.88 26.45-36.9 29.4-36.9L29.4-36.9Q32.85-36.9 34.77-35.45 36.7-34 36.7-31.4L36.7-31.4Q36.7-30.4 36.43-29.35 36.15-28.3 35.63-27.28 35.1-26.25 34.4-25.3 33.7-24.35 32.85-23.65L32.85-23.65Q31.55-23.85 30.6-24.83 29.65-25.8 29.4-27.1L29.4-27.1Q31.15-28.55 32.18-30.13 33.2-31.7 33.2-33L33.2-33Q33.2-35.2 30.45-35.2L30.45-35.2Q29.3-35.2 28.08-34.73 26.85-34.25 25.6-33.4 24.35-32.55 23.18-31.35 22-30.15 21-28.7L21-28.7Q14.05-18.7 14.05-8.25L14.05-8.25Q14.05-4.55 15.2-2.3 16.35-0.05 18.25 0.35L18.25 0.35Q20.4-0.15 23.7-2.4 27-4.65 30.9-8.25L30.9-8.25Q31.4-7.75 31.5-7.2L31.5-7.2Q30.05-5.3 28.5-3.55 26.95-1.8 25.43-0.35 23.9 1.1 22.43 2.2 20.95 3.3 19.7 3.9L19.7 3.9Q13.5 3.8 10.3 0.35 7.1-3.1 7.1-9.8ZM46.15 1.75L46.15 1.75Q43.3 1.45 41.6-0.75 39.9-2.95 39.9-6.35L39.9-6.35Q39.9-8.35 40.5-10.5 41.1-12.65 42.2-14.68 43.3-16.7 44.8-18.5 46.3-20.3 48.05-21.6L48.05-21.6Q50.8-23.65 53.2-23.65L53.2-23.65Q54.8-22.8 56.35-20.1L56.35-20.1Q56.6-20.1 56.8-20.13 57-20.15 57.25-20.15L57.25-20.15Q59.9-20.15 59.9-15.45L59.9-15.45Q59.9-12.3 58.88-9.47 57.85-6.65 56.03-4.35 54.2-2.05 51.68-0.48 49.15 1.1 46.15 1.75ZM48.7-14L48.7-14Q47.85-12.85 47.1-11.5 46.35-10.15 45.8-8.78 45.25-7.4 44.95-6.13 44.65-4.85 44.65-3.85L44.65-3.85Q44.65-2.65 45.05-1.55 45.45-0.45 45.95-0.3L45.95-0.3Q48.2-0.8 50.08-2.18 51.95-3.55 53.33-5.6 54.7-7.65 55.48-10.25 56.25-12.85 56.25-15.8L56.25-15.8Q56.25-17.1 56.1-17.85 55.95-18.6 55.6-19.15L55.6-19.15Q53.4-18.5 51.68-17.05 49.95-15.6 48.7-14ZM75.85-24.25L75.85-24.25Q77.15-23.85 78.3-22.48 79.45-21.1 80-19.45L80-19.45Q79.45-18.1 78.3-16.2 77.15-14.3 76-12.33 74.85-10.35 73.93-8.58 73-6.8 72.85-5.65L72.85-5.65Q73.65-6.5 74.63-7.63 75.6-8.75 76.53-9.88 77.45-11 78.25-11.93 79.05-12.85 79.5-13.3L79.5-13.3Q80.45-14.3 81.75-15.63 83.05-16.95 84.48-18.13 85.9-19.3 87.35-20.13 88.8-20.95 90-20.95L90-20.95Q91.3-20.95 92.18-20.08 93.05-19.2 93.55-18.25L93.55-18.25Q93.55-18.15 93.18-17.98 92.8-17.8 92.1-17L92.1-17Q91.4-16.1 90.53-14.53 89.65-12.95 88.83-11.13 88-9.3 87.45-7.4 86.9-5.5 86.9-3.95L86.9-3.95Q86.9-2.7 87.23-2.35 87.55-2 88.15-2L88.15-2Q88.7-2 89.3-2.25 89.9-2.5 90.25-2.5L90.25-2.5Q90.45-2.4 90.58-2.08 90.7-1.75 90.7-1.5L90.7-1.5Q90.3-1.15 89.75-0.8 89.2-0.45 88.6-0.15 88 0.15 87.43 0.35 86.85 0.55 86.4 0.55L86.4 0.55Q84.95 0.55 84.03 0.13 83.1-0.3 82.58-1 82.05-1.7 81.85-2.68 81.65-3.65 81.65-4.75L81.65-4.75Q81.65-5.35 81.75-6.1 81.85-6.85 82.15-7.88 82.45-8.9 83-10.33 83.55-11.75 84.4-13.75L84.4-13.75Q84.3-13.75 83.05-13.05 81.8-12.35 80.35-10.9L80.35-10.9Q78-8.65 76.13-6.45 74.25-4.25 72.3-1.55L72.3-1.55Q71.2 0 70.38 1.07 69.55 2.15 68.95 2.5L68.95 2.5Q67.9 1.9 67.4 0.83 66.9-0.25 66.65-1.4L66.65-1.4Q66.65-2.35 66.93-3.8 67.2-5.25 67.68-7.03 68.15-8.8 68.85-10.75 69.55-12.7 70.4-14.65L70.4-14.65Q72.3-19.05 73.88-21.55 75.45-24.05 75.85-24.25ZM108.31-24.25L108.31-24.25Q109.61-23.85 110.76-22.48 111.91-21.1 112.46-19.45L112.46-19.45Q111.91-18.1 110.76-16.2 109.61-14.3 108.46-12.33 107.31-10.35 106.38-8.58 105.46-6.8 105.31-5.65L105.31-5.65Q106.11-6.5 107.08-7.63 108.06-8.75 108.98-9.88 109.91-11 110.71-11.93 111.51-12.85 111.96-13.3L111.96-13.3Q112.91-14.3 114.21-15.63 115.51-16.95 116.93-18.13 118.36-19.3 119.81-20.13 121.26-20.95 122.46-20.95L122.46-20.95Q123.76-20.95 124.63-20.08 125.51-19.2 126.01-18.25L126.01-18.25Q126.01-18.15 125.63-17.98 125.26-17.8 124.56-17L124.56-17Q123.86-16.1 122.98-14.53 122.11-12.95 121.28-11.13 120.46-9.3 119.91-7.4 119.36-5.5 119.36-3.95L119.36-3.95Q119.36-2.7 119.68-2.35 120.01-2 120.61-2L120.61-2Q121.16-2 121.76-2.25 122.36-2.5 122.71-2.5L122.71-2.5Q122.91-2.4 123.03-2.08 123.16-1.75 123.16-1.5L123.16-1.5Q122.76-1.15 122.21-0.8 121.66-0.45 121.06-0.15 120.46 0.15 119.88 0.35 119.31 0.55 118.86 0.55L118.86 0.55Q117.41 0.55 116.48 0.13 115.56-0.3 115.03-1 114.51-1.7 114.31-2.68 114.11-3.65 114.11-4.75L114.11-4.75Q114.11-5.35 114.21-6.1 114.31-6.85 114.61-7.88 114.91-8.9 115.46-10.33 116.01-11.75 116.86-13.75L116.86-13.75Q116.76-13.75 115.51-13.05 114.26-12.35 112.81-10.9L112.81-10.9Q110.46-8.65 108.58-6.45 106.71-4.25 104.76-1.55L104.76-1.55Q103.66 0 102.83 1.07 102.01 2.15 101.41 2.5L101.41 2.5Q100.36 1.9 99.86 0.83 99.36-0.25 99.11-1.4L99.11-1.4Q99.11-2.35 99.38-3.8 99.66-5.25 100.13-7.03 100.61-8.8 101.31-10.75 102.01-12.7 102.86-14.65L102.86-14.65Q104.76-19.05 106.33-21.55 107.91-24.05 108.31-24.25ZM150.56-20.7L150.56-20.7Q150.36-17.6 149.46-15.38 148.56-13.15 146.88-11.48 145.21-9.8 142.81-8.45 140.41-7.1 137.21-5.85L137.21-5.85Q137.21-5.55 137.18-5.23 137.16-4.9 137.16-4.55L137.16-4.55Q137.16-3.9 137.26-3.2 137.36-2.5 137.61-1.9 137.86-1.3 138.31-0.93 138.76-0.55 139.46-0.55L139.46-0.55Q140.81-0.55 142.11-1.15 143.41-1.75 144.58-2.63 145.76-3.5 146.78-4.53 147.81-5.55 148.61-6.4L148.61-6.4Q149.11-5.95 149.46-5.55L149.46-5.55Q147.21-2.55 144.53-0.58 141.86 1.4 139.46 1.95L139.46 1.95Q136.01 1.55 134.08-0.58 132.16-2.7 132.16-5.7L132.16-5.7Q132.16-7.75 132.73-9.88 133.31-12 134.33-13.98 135.36-15.95 136.73-17.7 138.11-19.45 139.68-20.75 141.26-22.05 142.93-22.8 144.61-23.55 146.26-23.55L146.26-23.55Q148.56-23.25 150.56-20.7ZM147.11-19.05L147.11-19.05Q145.76-18.85 144.31-17.95 142.86-17.05 141.58-15.55 140.31-14.05 139.26-12.05 138.21-10.05 137.61-7.75L137.61-7.75Q141.61-9.75 144.26-12.68 146.91-15.6 147.11-19.05ZM158.61-8.8L158.61-8.8Q158.61-11.65 159.79-14.33 160.96-17 162.89-19.07 164.81-21.15 167.29-22.43 169.76-23.7 172.41-23.7L172.41-23.7Q175.01-23.7 176.41-22.4 177.81-21.1 177.81-18.7L177.81-18.7Q177.81-17.55 177.49-16.48 177.16-15.4 176.64-14.55 176.11-13.7 175.41-13.18 174.71-12.65 174.01-12.65L174.01-12.65Q173.41-12.65 172.79-13.03 172.16-13.4 171.76-14L171.76-14Q175.11-17.05 175.11-19.55L175.11-19.55Q175.11-21 173.96-21L173.96-21Q172.96-21 171.46-20.05 169.96-19.1 168.56-17.55L168.56-17.55Q166.41-15.15 165.29-12.23 164.16-9.3 164.16-6.1L164.16-6.1Q164.16-2.05 165.96-1.25L165.96-1.25Q166.71-1.35 167.71-1.7 168.71-2.05 169.86-2.63 171.01-3.2 172.24-3.95 173.46-4.7 174.61-5.55L174.61-5.55Q174.81-5.4 174.96-5.1 175.11-4.8 175.11-4.55L175.11-4.55Q174.26-3.5 173.16-2.5 172.06-1.5 170.86-0.68 169.66 0.15 168.54 0.73 167.41 1.3 166.56 1.45L166.56 1.45Q164.91 1.3 163.46 0.43 162.01-0.45 160.94-1.85 159.86-3.25 159.24-5.05 158.61-6.85 158.61-8.8ZM190.36-19.15L187.51-19.15Q187.26-19.45 187.06-20.43 186.86-21.4 186.86-22.1L186.86-22.1Q188.16-22 189.36-21.93 190.56-21.85 191.56-21.8L191.56-21.8Q192.31-23.3 193.19-24.78 194.06-26.25 194.89-27.48 195.71-28.7 196.44-29.55 197.16-30.4 197.56-30.65L197.56-30.65Q198.06-30.65 198.84-30.48 199.61-30.3 200.41-30.03 201.21-29.75 201.86-29.45 202.51-29.15 202.76-28.85L202.76-28.85Q201.26-26.95 200.19-25.33 199.11-23.7 197.86-21.6L197.86-21.6Q198.86-21.6 199.89-21.65 200.91-21.7 201.96-21.8L201.96-21.8Q202.21-21.55 202.36-21.18 202.51-20.8 202.51-20.4L202.51-20.4Q200.06-19.5 196.56-19.4L196.56-19.4Q195.31-17 194.34-14.63 193.36-12.25 192.69-10.05 192.01-7.85 191.64-5.9 191.26-3.95 191.26-2.4L191.26-2.4Q191.26-0.2 192.91 0.05L192.91 0.05Q194.41-0.15 195.76-0.7 197.11-1.25 198.16-2.1L198.16-2.1Q198.46-1.65 198.51-1.35L198.51-1.35Q198.21-0.9 197.49-0.3 196.76 0.3 195.91 0.88 195.06 1.45 194.26 1.85 193.46 2.25 193.06 2.3L193.06 2.3Q191.81 2.25 190.56 1.75 189.31 1.25 188.29 0.5 187.26-0.25 186.61-1.18 185.96-2.1 185.96-3L185.96-3Q185.96-4.2 186.29-6.03 186.61-7.85 187.21-10 187.81-12.15 188.61-14.5 189.41-16.85 190.36-19.15L190.36-19.15ZM207.66-3.35L207.66-3.35Q207.66-3.8 207.74-4.48 207.81-5.15 208.01-6.28 208.21-7.4 208.54-9 208.86-10.6 209.36-12.85L209.36-12.85Q209.46-13.35 209.81-14.45 210.16-15.55 210.74-16.78 211.31-18 212.14-19.15 212.96-20.3 214.11-20.85L214.11-20.85Q214.96-20.65 216.36-19.83 217.76-19 218.76-17.55L218.76-17.55Q217.61-16.25 216.84-14.95 216.06-13.65 215.44-12.25 214.81-10.85 214.29-9.35 213.76-7.85 213.11-6.2L213.11-6.2Q212.56-4.8 212.11-3.33 211.66-1.85 211.61-0.75L211.61-0.75Q211.61 0.15 211.59 0.53 211.56 0.9 211.31 0.9L211.31 0.9Q211.11 0.9 210.51 0.65 209.91 0.4 209.29-0.13 208.66-0.65 208.16-1.45 207.66-2.25 207.66-3.35ZM217.21-25.05L217.21-25.05Q217.21-25.35 217.36-25.95L217.36-25.95Q217.11-26.2 216.94-26.7 216.76-27.2 216.76-27.6L216.76-27.6Q216.76-28.05 216.89-28.83 217.01-29.6 217.21-30.5 217.41-31.4 217.71-32.38 218.01-33.35 218.31-34.15L218.31-34.15Q218.91-34.15 219.79-33.83 220.66-33.5 221.56-32.98 222.46-32.45 223.21-31.83 223.96-31.2 224.36-30.65L224.36-30.65Q223.81-30.1 222.91-29.13 222.01-28.15 221.16-27.08 220.31-26 219.61-25.05 218.91-24.1 218.71-23.7L218.71-23.7Q218.11-23.8 217.66-24.23 217.21-24.65 217.21-25.05ZM232.97-24.25L232.97-24.25Q234.27-23.85 235.42-22.48 236.57-21.1 237.12-19.45L237.12-19.45Q236.57-18.1 235.42-16.2 234.27-14.3 233.12-12.33 231.97-10.35 231.04-8.58 230.12-6.8 229.97-5.65L229.97-5.65Q230.77-6.5 231.74-7.63 232.72-8.75 233.64-9.88 234.57-11 235.37-11.93 236.17-12.85 236.62-13.3L236.62-13.3Q237.57-14.3 238.87-15.63 240.17-16.95 241.59-18.13 243.02-19.3 244.47-20.13 245.92-20.95 247.12-20.95L247.12-20.95Q248.42-20.95 249.29-20.08 250.17-19.2 250.67-18.25L250.67-18.25Q250.67-18.15 250.29-17.98 249.92-17.8 249.22-17L249.22-17Q248.52-16.1 247.64-14.53 246.77-12.95 245.94-11.13 245.12-9.3 244.57-7.4 244.02-5.5 244.02-3.95L244.02-3.95Q244.02-2.7 244.34-2.35 244.67-2 245.27-2L245.27-2Q245.82-2 246.42-2.25 247.02-2.5 247.37-2.5L247.37-2.5Q247.57-2.4 247.69-2.08 247.82-1.75 247.82-1.5L247.82-1.5Q247.42-1.15 246.87-0.8 246.32-0.45 245.72-0.15 245.12 0.15 244.54 0.35 243.97 0.55 243.52 0.55L243.52 0.55Q242.07 0.55 241.14 0.13 240.22-0.3 239.69-1 239.17-1.7 238.97-2.68 238.77-3.65 238.77-4.75L238.77-4.75Q238.77-5.35 238.87-6.1 238.97-6.85 239.27-7.88 239.57-8.9 240.12-10.33 240.67-11.75 241.52-13.75L241.52-13.75Q241.42-13.75 240.17-13.05 238.92-12.35 237.47-10.9L237.47-10.9Q235.12-8.65 233.24-6.45 231.37-4.25 229.42-1.55L229.42-1.55Q228.32 0 227.49 1.07 226.67 2.15 226.07 2.5L226.07 2.5Q225.02 1.9 224.52 0.83 224.02-0.25 223.77-1.4L223.77-1.4Q223.77-2.35 224.04-3.8 224.32-5.25 224.79-7.03 225.27-8.8 225.97-10.75 226.67-12.7 227.52-14.65L227.52-14.65Q229.42-19.05 230.99-21.55 232.57-24.05 232.97-24.25ZM247.22 14.9L247.22 14.9Q247.22 14.6 247.42 14.35 247.62 14.1 247.87 13.85L247.87 13.85Q248.47 14.4 248.89 14.7 249.32 15 249.69 15.2 250.07 15.4 250.47 15.45 250.87 15.5 251.42 15.5L251.42 15.5Q254.02 15.5 256.37 14.13 258.72 12.75 260.79 10.15 262.87 7.55 264.57 3.8 266.27 0.05 267.57-4.7L267.57-4.7Q266.97-4.1 266.09-3.38 265.22-2.65 264.27-2 263.32-1.35 262.39-0.8 261.47-0.25 260.82 0L260.82 0Q259.97-0.15 259.24-0.73 258.52-1.3 257.97-2.15 257.42-3 257.12-4.08 256.82-5.15 256.82-6.35L256.82-6.35Q256.82-8.3 257.54-10.35 258.27-12.4 259.47-14.38 260.67-16.35 262.29-18.1 263.92-19.85 265.74-21.15 267.57-22.45 269.44-23.23 271.32-24 273.12-24L273.12-24Q274.87-24 275.74-23.28 276.62-22.55 277.02-20.8L277.02-20.8Q276.47-21.1 275.62-21.1L275.62-21.1Q274.42-21.1 272.84-20.15 271.27-19.2 269.64-17.68 268.02-16.15 266.42-14.18 264.82-12.2 263.59-10.15 262.37-8.1 261.59-6.15 260.82-4.2 260.82-2.65L260.82-2.65Q260.82-2.3 260.87-2.23 260.92-2.15 261.02-2.15L261.02-2.15Q261.47-2.15 262.24-2.65 263.02-3.15 263.99-3.93 264.97-4.7 266.02-5.73 267.07-6.75 268.02-7.8L268.02-7.8Q270.17-10.2 271.94-13.18 273.72-16.15 274.77-18.95L274.77-18.95Q276.12-18.85 277.17-18.5 278.22-18.15 278.62-17.75L278.62-17.75Q276.92-13.85 275.89-11.2 274.87-8.55 274.12-6.5L274.12-6.5Q272.77-2.9 271.59 0.08 270.42 3.05 269.19 5.58 267.97 8.1 266.54 10.28 265.12 12.45 263.32 14.45L263.32 14.45Q262.47 15.4 261.39 16.13 260.32 16.85 259.19 17.35 258.07 17.85 256.99 18.1 255.92 18.35 255.02 18.35L255.02 18.35Q253.82 18.35 252.57 18.07 251.32 17.8 250.24 17.32 249.17 16.85 248.37 16.23 247.57 15.6 247.22 14.9ZM331.52-15.35L331.52-15.35Q330.72-15.3 329.57-14.33 328.42-13.35 327.1-11.83 325.77-10.3 324.35-8.45 322.92-6.6 321.6-4.78 320.27-2.95 319.12-1.35 317.97 0.25 317.17 1.2L317.17 1.2Q316.07 0.75 315.27-0.13 314.47-1 314.12-2.3L314.12-2.3Q314.37-3.85 314.82-5.53 315.27-7.2 316-9 316.72-10.8 317.8-12.78 318.87-14.75 320.42-16.95L320.42-16.95Q319.67-16.9 318.37-15.88 317.07-14.85 315.57-13.23 314.07-11.6 312.47-9.58 310.87-7.55 309.47-5.6L309.47-5.6Q307.62-3 306.4-1.05 305.17 0.9 304.62 1.25L304.62 1.25Q303.32 0.3 302.82-0.8 302.32-1.9 302.07-3.25L302.07-3.25Q302.12-4.45 302.45-6.25 302.77-8.05 303.37-9.95L303.37-9.95Q304.52-13.6 306.35-17.2 308.17-20.8 309.87-23.8L309.87-23.8Q311.27-23.5 312.4-22.85 313.52-22.2 314.77-20.95L314.77-20.95Q314.27-19.4 313.22-17.68 312.17-15.95 311.02-14.05 309.87-12.15 308.92-10.15 307.97-8.15 307.67-6.1L307.67-6.1Q309.07-8.1 311-10.7 312.92-13.3 314.95-15.6 316.97-17.9 318.97-19.5 320.97-21.1 322.57-21.1L322.57-21.1Q323.17-21.1 323.87-20.9 324.57-20.7 325.17-20.4 325.77-20.1 326.17-19.83 326.57-19.55 326.62-19.4L326.62-19.4Q326.37-18.4 325.45-16.68 324.52-14.95 323.47-13.05 322.42-11.15 321.52-9.38 320.62-7.6 320.47-6.55L320.47-6.55Q322.92-9.9 325.07-12.63 327.22-15.35 329.12-17.3 331.02-19.25 332.65-20.3 334.27-21.35 335.72-21.35L335.72-21.35Q336.72-21.35 337.6-20.83 338.47-20.3 338.82-19.3L338.82-19.3Q338.37-17.8 337.35-15.7 336.32-13.6 335.27-11.28 334.22-8.95 333.4-6.7 332.57-4.45 332.57-2.65L332.57-2.65Q332.57-1.6 332.87-1.28 333.17-0.95 333.72-0.95L333.72-0.95Q334.32-0.95 334.85-1.18 335.37-1.4 335.62-1.4L335.62-1.4Q335.92-1.2 335.97-0.9 336.02-0.6 336.02-0.35L336.02-0.35Q335.02 0.45 333.97 0.98 332.92 1.5 331.62 1.5L331.62 1.5Q330.42 1.5 329.65 1.1 328.87 0.7 328.37 0 327.87-0.7 327.67-1.6 327.47-2.5 327.47-3.55L327.47-3.55Q327.47-5.25 327.92-6.93 328.37-8.6 329-10.13 329.62-11.65 330.32-12.98 331.02-14.3 331.52-15.35ZM346.38-3.35L346.38-3.35Q346.38-3.8 346.45-4.48 346.53-5.15 346.73-6.28 346.93-7.4 347.25-9 347.58-10.6 348.08-12.85L348.08-12.85Q348.18-13.35 348.53-14.45 348.88-15.55 349.45-16.78 350.03-18 350.85-19.15 351.68-20.3 352.83-20.85L352.83-20.85Q353.68-20.65 355.08-19.83 356.48-19 357.48-17.55L357.48-17.55Q356.33-16.25 355.55-14.95 354.78-13.65 354.15-12.25 353.53-10.85 353-9.35 352.48-7.85 351.83-6.2L351.83-6.2Q351.28-4.8 350.83-3.33 350.38-1.85 350.33-0.75L350.33-0.75Q350.33 0.15 350.3 0.53 350.28 0.9 350.03 0.9L350.03 0.9Q349.83 0.9 349.23 0.65 348.63 0.4 348-0.13 347.38-0.65 346.88-1.45 346.38-2.25 346.38-3.35ZM355.93-25.05L355.93-25.05Q355.93-25.35 356.08-25.95L356.08-25.95Q355.83-26.2 355.65-26.7 355.48-27.2 355.48-27.6L355.48-27.6Q355.48-28.05 355.6-28.83 355.73-29.6 355.93-30.5 356.13-31.4 356.43-32.38 356.73-33.35 357.03-34.15L357.03-34.15Q357.63-34.15 358.5-33.83 359.38-33.5 360.28-32.98 361.18-32.45 361.93-31.83 362.68-31.2 363.08-30.65L363.08-30.65Q362.53-30.1 361.63-29.13 360.73-28.15 359.88-27.08 359.03-26 358.33-25.05 357.63-24.1 357.43-23.7L357.43-23.7Q356.83-23.8 356.38-24.23 355.93-24.65 355.93-25.05ZM371.68-24.25L371.68-24.25Q372.98-23.85 374.13-22.48 375.28-21.1 375.83-19.45L375.83-19.45Q375.28-18.1 374.13-16.2 372.98-14.3 371.83-12.33 370.68-10.35 369.75-8.58 368.83-6.8 368.68-5.65L368.68-5.65Q369.48-6.5 370.45-7.63 371.43-8.75 372.35-9.88 373.28-11 374.08-11.93 374.88-12.85 375.33-13.3L375.33-13.3Q376.28-14.3 377.58-15.63 378.88-16.95 380.3-18.13 381.73-19.3 383.18-20.13 384.63-20.95 385.83-20.95L385.83-20.95Q387.13-20.95 388-20.08 388.88-19.2 389.38-18.25L389.38-18.25Q389.38-18.15 389-17.98 388.63-17.8 387.93-17L387.93-17Q387.23-16.1 386.35-14.53 385.48-12.95 384.65-11.13 383.83-9.3 383.28-7.4 382.73-5.5 382.73-3.95L382.73-3.95Q382.73-2.7 383.05-2.35 383.38-2 383.98-2L383.98-2Q384.53-2 385.13-2.25 385.73-2.5 386.08-2.5L386.08-2.5Q386.28-2.4 386.4-2.08 386.53-1.75 386.53-1.5L386.53-1.5Q386.13-1.15 385.58-0.8 385.03-0.45 384.43-0.15 383.83 0.15 383.25 0.35 382.68 0.55 382.23 0.55L382.23 0.55Q380.78 0.55 379.85 0.13 378.93-0.3 378.4-1 377.88-1.7 377.68-2.68 377.48-3.65 377.48-4.75L377.48-4.75Q377.48-5.35 377.58-6.1 377.68-6.85 377.98-7.88 378.28-8.9 378.83-10.33 379.38-11.75 380.23-13.75L380.23-13.75Q380.13-13.75 378.88-13.05 377.63-12.35 376.18-10.9L376.18-10.9Q373.83-8.65 371.95-6.45 370.08-4.25 368.13-1.55L368.13-1.55Q367.03 0 366.2 1.07 365.38 2.15 364.78 2.5L364.78 2.5Q363.73 1.9 363.23 0.83 362.73-0.25 362.48-1.4L362.48-1.4Q362.48-2.35 362.75-3.8 363.03-5.25 363.5-7.03 363.98-8.8 364.68-10.75 365.38-12.7 366.23-14.65L366.23-14.65Q368.13-19.05 369.7-21.55 371.28-24.05 371.68-24.25ZM406.93-23.35L406.93-23.35Q407.93-23.35 409.23-22.75 410.53-22.15 411.53-21.2L411.53-21.2Q411.28-23.2 410.9-24.98 410.53-26.75 409.8-28.65 409.08-30.55 407.88-32.8 406.68-35.05 404.88-37.95L404.88-37.95Q405.03-38.4 405.55-39 406.08-39.6 406.75-40.13 407.43-40.65 408.15-41.05 408.88-41.45 409.53-41.55L409.53-41.55Q410.93-40 412.18-37.68 413.43-35.35 414.38-32.68 415.33-30 415.85-27.15 416.38-24.3 416.38-21.7L416.38-21.7Q416.38-19.1 415.8-16.35 415.23-13.6 414.2-10.98 413.18-8.35 411.83-6 410.48-3.65 408.9-1.8 407.33 0.05 405.63 1.23 403.93 2.4 402.23 2.7L402.23 2.7Q398.78 2.3 396.95 0.48 395.13-1.35 395.13-4.55L395.13-4.55Q395.13-6.25 395.65-8.25 396.18-10.25 397.05-12.23 397.93-14.2 399.1-16.07 400.28-17.95 401.6-19.45 402.93-20.95 404.28-22 405.63-23.05 406.93-23.35ZM401.83 0.7L401.83 0.7Q403.58 0.1 405.33-1.95 407.08-4 408.48-6.78 409.88-9.55 410.75-12.73 411.63-15.9 411.63-18.85L411.63-18.85Q411.63-19.7 411.63-19.9 411.63-20.1 411.58-20.3L411.58-20.3Q410.38-19.8 409.03-18.6 407.68-17.4 406.33-15.83 404.98-14.25 403.78-12.4 402.58-10.55 401.63-8.7 400.68-6.85 400.13-5.15 399.58-3.45 399.58-2.15L399.58-2.15Q399.58 0.35 401.83 0.7ZM440.38-19.9L440.38-19.9Q440.33-18.95 440.06-17.93 439.78-16.9 439.38-16.07 438.98-15.25 438.53-14.7 438.08-14.15 437.68-14.15L437.68-14.15Q437.13-14.2 437.03-14.9L437.03-14.9Q437.03-15.05 437.16-15.38 437.28-15.7 437.43-16.1 437.58-16.5 437.71-16.9 437.83-17.3 437.83-17.6L437.83-17.6Q437.83-18.3 437.51-18.78 437.18-19.25 436.63-19.25L436.63-19.25Q434.63-19.25 433.58-16.75 432.53-14.25 432.53-9.4L432.53-9.4Q432.53-8.9 432.58-8.8L432.58-8.8Q433.63-8.85 434.46-8.88 435.28-8.9 436.08-8.9L436.08-8.9Q436.13-8.8 436.13-8.5L436.13-8.5Q436.13-8.05 435.93-7.85L435.93-7.85Q434.78-7.6 434.11-7.43 433.43-7.25 433.08-7.1 432.73-6.95 432.66-6.78 432.58-6.6 432.58-6.3L432.58-6.3Q432.58-5.9 432.61-5.5 432.63-5.1 432.63-4.5L432.63-4.5Q432.63-0.3 430.36 2.25 428.08 4.8 424.03 5.2L424.03 5.2Q423.33 5.15 422.58 4.8 421.83 4.45 421.16 3.9 420.48 3.35 419.98 2.68 419.48 2 419.28 1.3L419.28 1.3Q419.28-0.6 420.08-2.33 420.88-4.05 422.26-5.38 423.63-6.7 425.51-7.53 427.38-8.35 429.58-8.5L429.58-8.5Q429.58-9.75 429.33-10.95 429.08-12.15 428.81-13.28 428.53-14.4 428.28-15.48 428.03-16.55 428.03-17.6L428.03-17.6Q428.03-18.95 428.58-20.28 429.13-21.6 430.03-22.73 430.93-23.85 432.13-24.65 433.33-25.45 434.63-25.75L434.63-25.75Q435.18-25.6 436.11-24.88 437.03-24.15 437.93-23.25 438.83-22.35 439.53-21.43 440.23-20.5 440.38-19.9ZM423.88 2.9L423.88 2.9Q425.08 2.4 426.16 1.45 427.23 0.5 428.03-0.7 428.83-1.9 429.31-3.25 429.78-4.6 429.78-5.9L429.78-5.9Q428.78-5.75 427.58-4.98 426.38-4.2 425.33-3.13 424.28-2.05 423.58-0.9 422.88 0.25 422.88 1.1L422.88 1.1Q422.88 2.2 423.88 2.9ZM469.04-19.15L466.19-19.15Q465.94-19.45 465.74-20.43 465.54-21.4 465.54-22.1L465.54-22.1Q466.84-22 468.04-21.93 469.24-21.85 470.24-21.8L470.24-21.8Q470.99-23.3 471.86-24.78 472.74-26.25 473.56-27.48 474.39-28.7 475.11-29.55 475.84-30.4 476.24-30.65L476.24-30.65Q476.74-30.65 477.51-30.48 478.29-30.3 479.09-30.03 479.89-29.75 480.54-29.45 481.19-29.15 481.44-28.85L481.44-28.85Q479.94-26.95 478.86-25.33 477.79-23.7 476.54-21.6L476.54-21.6Q477.54-21.6 478.56-21.65 479.59-21.7 480.64-21.8L480.64-21.8Q480.89-21.55 481.04-21.18 481.19-20.8 481.19-20.4L481.19-20.4Q478.74-19.5 475.24-19.4L475.24-19.4Q473.99-17 473.01-14.63 472.04-12.25 471.36-10.05 470.69-7.85 470.31-5.9 469.94-3.95 469.94-2.4L469.94-2.4Q469.94-0.2 471.59 0.05L471.59 0.05Q473.09-0.15 474.44-0.7 475.79-1.25 476.84-2.1L476.84-2.1Q477.14-1.65 477.19-1.35L477.19-1.35Q476.89-0.9 476.16-0.3 475.44 0.3 474.59 0.88 473.74 1.45 472.94 1.85 472.14 2.25 471.74 2.3L471.74 2.3Q470.49 2.25 469.24 1.75 467.99 1.25 466.96 0.5 465.94-0.25 465.29-1.18 464.64-2.1 464.64-3L464.64-3Q464.64-4.2 464.96-6.03 465.29-7.85 465.89-10 466.49-12.15 467.29-14.5 468.09-16.85 469.04-19.15L469.04-19.15ZM486.24-0.85L486.24-0.85Q486.24-2.6 486.59-4.98 486.94-7.35 487.61-10.05 488.29-12.75 489.21-15.7 490.14-18.65 491.29-21.6L491.29-21.6Q492.29-24.25 493.61-26.95 494.94-29.65 496.49-32.25 498.04-34.85 499.71-37.2 501.39-39.55 503.09-41.5L503.09-41.5Q503.89-41.5 504.81-41.3 505.74-41.1 506.61-40.78 507.49-40.45 508.21-40 508.94-39.55 509.39-39.1L509.39-39.1Q505.64-35.25 502.64-31.33 499.64-27.4 497.89-23.95L497.89-23.95Q496.94-22.05 496.16-20.4 495.39-18.75 494.74-17.13 494.09-15.5 493.56-13.88 493.04-12.25 492.59-10.45L492.59-10.45Q502.19-22.7 506.84-22.7L506.84-22.7Q508.14-22.7 509.64-21.85 511.14-21 512.29-19.55L512.29-19.55Q510.74-17.85 509.09-15.45 507.44-13.05 506.06-10.63 504.69-8.2 503.81-6.13 502.94-4.05 502.94-3.05L502.94-3.05Q502.94-2.55 503.09-2.38 503.24-2.2 503.74-2.2L503.74-2.2Q504.49-2.2 504.94-2.4 505.39-2.6 505.49-2.6L505.49-2.6Q505.74-2.2 505.79-2.05 505.84-1.9 505.84-1.8L505.84-1.8Q505.84-1.6 505.24-1.23 504.64-0.85 503.81-0.48 502.99-0.1 502.19 0.2 501.39 0.5 500.99 0.5L500.99 0.5Q500.49 0.5 499.99 0.23 499.49-0.05 499.11-0.5 498.74-0.95 498.51-1.5 498.29-2.05 498.29-2.65L498.29-2.65Q498.29-3.4 498.71-4.88 499.14-6.35 499.89-8.33 500.64-10.3 501.69-12.65 502.74-15 503.94-17.45L503.94-17.45Q503.94-17.65 503.74-17.65L503.74-17.65Q503.59-17.65 502.96-17.25 502.34-16.85 501.79-16.45L501.79-16.45Q499.99-15.1 498.16-13.13 496.34-11.15 494.61-8.8 492.89-6.45 491.36-3.83 489.84-1.2 488.74 1.45L488.74 1.45Q488.59 1.8 488.29 2.1 487.99 2.4 487.79 2.4L487.79 2.4Q487.64 2.4 487.36 2.05 487.09 1.7 486.86 1.18 486.64 0.65 486.44 0.1 486.24-0.45 486.24-0.85ZM516.39-1L516.39-1Q516.64-2.45 517.27-4.83 517.89-7.2 518.74-9.88 519.59-12.55 520.54-15.25 521.49-17.95 522.39-20.1L522.39-20.1Q523.04-21.65 523.54-22.53 524.04-23.4 524.64-24L524.64-24Q525.34-23.9 526.09-23.65 526.84-23.4 527.54-23.05 528.24-22.7 528.79-22.33 529.34-21.95 529.64-21.6L529.64-21.6Q528.29-20 527.27-17.95 526.24-15.9 525.19-12.7L525.19-12.7Q527.89-15.1 529.97-17.3 532.04-19.5 533.84-22.2L533.84-22.2Q534.14-22.45 534.89-22.45L534.89-22.45Q535.59-22.45 536.24-22.23 536.89-22 537.14-21.6L537.14-21.6Q536.24-19.2 536.24-16.85L536.24-16.85Q536.24-14.65 536.89-13.55L536.89-13.55Q536.84-13.25 536.22-12.4 535.59-11.55 534.84-10.8L534.84-10.8Q533.49-11.5 532.44-12.73 531.39-13.95 530.89-15.4L530.89-15.4Q528.54-13.75 526.89-12.18 525.24-10.6 524.07-8.68 522.89-6.75 522.07-4.25 521.24-1.75 520.49 1.7L520.49 1.7Q520.04 1.65 519.42 1.38 518.79 1.1 518.17 0.7 517.54 0.3 517.04-0.15 516.54-0.6 516.39-1ZM549.09 1.75L549.09 1.75Q546.24 1.45 544.54-0.75 542.84-2.95 542.84-6.35L542.84-6.35Q542.84-8.35 543.44-10.5 544.04-12.65 545.14-14.68 546.24-16.7 547.74-18.5 549.24-20.3 550.99-21.6L550.99-21.6Q553.74-23.65 556.14-23.65L556.14-23.65Q557.74-22.8 559.29-20.1L559.29-20.1Q559.54-20.1 559.74-20.13 559.94-20.15 560.19-20.15L560.19-20.15Q562.84-20.15 562.84-15.45L562.84-15.45Q562.84-12.3 561.82-9.47 560.79-6.65 558.97-4.35 557.14-2.05 554.62-0.48 552.09 1.1 549.09 1.75ZM551.64-14L551.64-14Q550.79-12.85 550.04-11.5 549.29-10.15 548.74-8.78 548.19-7.4 547.89-6.13 547.59-4.85 547.59-3.85L547.59-3.85Q547.59-2.65 547.99-1.55 548.39-0.45 548.89-0.3L548.89-0.3Q551.14-0.8 553.02-2.18 554.89-3.55 556.27-5.6 557.64-7.65 558.42-10.25 559.19-12.85 559.19-15.8L559.19-15.8Q559.19-17.1 559.04-17.85 558.89-18.6 558.54-19.15L558.54-19.15Q556.34-18.5 554.62-17.05 552.89-15.6 551.64-14ZM584.29-1.1L584.29-1.1Q583.34-1.9 583.02-3.1 582.69-4.3 582.69-5.15L582.69-5.15Q582.69-6.2 582.94-6.95L582.94-6.95Q582.74-6.95 582.04-6.15 581.34-5.35 580.52-4.25 579.69-3.15 578.89-2.1 578.09-1.05 577.69-0.55L577.69-0.55Q577.04 0.15 576.47 0.55 575.89 0.95 575.54 1L575.54 1Q574.74 0.95 573.87 0.68 572.99 0.4 572.22-0.1 571.44-0.6 570.87-1.3 570.29-2 570.09-2.9L570.09-2.9Q570.09-4.3 570.17-5.2 570.24-6.1 570.49-7.15L570.49-7.15Q570.94-9.05 571.82-11.45 572.69-13.85 573.84-16.18 574.99-18.5 576.42-20.53 577.84-22.55 579.44-23.7L579.44-23.7Q579.89-23.7 580.49-23.63 581.09-23.55 581.72-23.35 582.34-23.15 582.92-22.88 583.49-22.6 583.89-22.15L583.89-22.15Q583.44-21.65 581.62-18.8 579.79-15.95 577.54-10.6L577.54-10.6Q577.29-10.05 576.94-9 576.59-7.95 576.24-6.8 575.89-5.65 575.67-4.55 575.44-3.45 575.44-2.8L575.44-2.8Q575.44-2.4 575.57-2.2 575.69-2 575.79-1.9L575.79-1.9Q576.54-2.2 577.69-3.55 578.84-4.9 580.89-7.7L580.89-7.7Q581.39-8.4 582.07-9.3 582.74-10.2 583.44-11.23 584.14-12.25 584.77-13.35 585.39-14.45 585.79-15.55L585.79-15.55Q585.99-16.15 586.32-16.98 586.64-17.8 587.12-18.7 587.59-19.6 588.22-20.53 588.84-21.45 589.69-22.25L589.69-22.25Q590.34-22.25 591.09-22.1 591.84-21.95 592.52-21.73 593.19-21.5 593.69-21.23 594.19-20.95 594.44-20.65L594.44-20.65Q593.54-18.45 592.44-16.3 591.34-14.15 590.39-12.08 589.44-10 588.79-7.95 588.14-5.9 588.14-3.95L588.14-3.95Q588.14-2.9 588.32-2.13 588.49-1.35 588.69-0.83 588.89-0.3 589.07 0.05 589.24 0.4 589.24 0.65L589.24 0.65Q589.24 0.7 589.14 0.8L589.14 0.8Q589.09 0.85 589.04 0.85L589.04 0.85Q588.69 0.85 588.14 0.7 587.59 0.55 586.92 0.28 586.24 0 585.57-0.35 584.89-0.7 584.29-1.1ZM590.45 14.9L590.45 14.9Q590.45 14.6 590.65 14.35 590.85 14.1 591.1 13.85L591.1 13.85Q591.7 14.4 592.12 14.7 592.55 15 592.92 15.2 593.3 15.4 593.7 15.45 594.1 15.5 594.65 15.5L594.65 15.5Q597.25 15.5 599.6 14.13 601.95 12.75 604.02 10.15 606.1 7.55 607.8 3.8 609.5 0.05 610.8-4.7L610.8-4.7Q610.2-4.1 609.32-3.38 608.45-2.65 607.5-2 606.55-1.35 605.62-0.8 604.7-0.25 604.05 0L604.05 0Q603.2-0.15 602.47-0.73 601.75-1.3 601.2-2.15 600.65-3 600.35-4.08 600.05-5.15 600.05-6.35L600.05-6.35Q600.05-8.3 600.77-10.35 601.5-12.4 602.7-14.38 603.9-16.35 605.52-18.1 607.15-19.85 608.97-21.15 610.8-22.45 612.67-23.23 614.55-24 616.35-24L616.35-24Q618.1-24 618.97-23.28 619.85-22.55 620.25-20.8L620.25-20.8Q619.7-21.1 618.85-21.1L618.85-21.1Q617.65-21.1 616.07-20.15 614.5-19.2 612.87-17.68 611.25-16.15 609.65-14.18 608.05-12.2 606.82-10.15 605.6-8.1 604.82-6.15 604.05-4.2 604.05-2.65L604.05-2.65Q604.05-2.3 604.1-2.23 604.15-2.15 604.25-2.15L604.25-2.15Q604.7-2.15 605.47-2.65 606.25-3.15 607.22-3.93 608.2-4.7 609.25-5.73 610.3-6.75 611.25-7.8L611.25-7.8Q613.4-10.2 615.17-13.18 616.95-16.15 618-18.95L618-18.95Q619.35-18.85 620.4-18.5 621.45-18.15 621.85-17.75L621.85-17.75Q620.15-13.85 619.12-11.2 618.1-8.55 617.35-6.5L617.35-6.5Q616-2.9 614.82 0.08 613.65 3.05 612.42 5.58 611.2 8.1 609.77 10.28 608.35 12.45 606.55 14.45L606.55 14.45Q605.7 15.4 604.62 16.13 603.55 16.85 602.42 17.35 601.3 17.85 600.22 18.1 599.15 18.35 598.25 18.35L598.25 18.35Q597.05 18.35 595.8 18.07 594.55 17.8 593.47 17.32 592.4 16.85 591.6 16.23 590.8 15.6 590.45 14.9ZM628.45-0.85L628.45-0.85Q628.45-2.6 628.8-4.98 629.15-7.35 629.82-10.05 630.5-12.75 631.42-15.7 632.35-18.65 633.5-21.6L633.5-21.6Q634.5-24.25 635.82-26.95 637.15-29.65 638.7-32.25 640.25-34.85 641.92-37.2 643.6-39.55 645.3-41.5L645.3-41.5Q646.1-41.5 647.02-41.3 647.95-41.1 648.82-40.78 649.7-40.45 650.42-40 651.15-39.55 651.6-39.1L651.6-39.1Q647.85-35.25 644.85-31.33 641.85-27.4 640.1-23.95L640.1-23.95Q639.15-22.05 638.37-20.4 637.6-18.75 636.95-17.13 636.3-15.5 635.77-13.88 635.25-12.25 634.8-10.45L634.8-10.45Q644.4-22.7 649.05-22.7L649.05-22.7Q650.35-22.7 651.85-21.85 653.35-21 654.5-19.55L654.5-19.55Q652.95-17.85 651.3-15.45 649.65-13.05 648.27-10.63 646.9-8.2 646.02-6.13 645.15-4.05 645.15-3.05L645.15-3.05Q645.15-2.55 645.3-2.38 645.45-2.2 645.95-2.2L645.95-2.2Q646.7-2.2 647.15-2.4 647.6-2.6 647.7-2.6L647.7-2.6Q647.95-2.2 648-2.05 648.05-1.9 648.05-1.8L648.05-1.8Q648.05-1.6 647.45-1.23 646.85-0.85 646.02-0.48 645.2-0.1 644.4 0.2 643.6 0.5 643.2 0.5L643.2 0.5Q642.7 0.5 642.2 0.23 641.7-0.05 641.32-0.5 640.95-0.95 640.72-1.5 640.5-2.05 640.5-2.65L640.5-2.65Q640.5-3.4 640.92-4.88 641.35-6.35 642.1-8.33 642.85-10.3 643.9-12.65 644.95-15 646.15-17.45L646.15-17.45Q646.15-17.65 645.95-17.65L645.95-17.65Q645.8-17.65 645.17-17.25 644.55-16.85 644-16.45L644-16.45Q642.2-15.1 640.37-13.13 638.55-11.15 636.82-8.8 635.1-6.45 633.57-3.83 632.05-1.2 630.95 1.45L630.95 1.45Q630.8 1.8 630.5 2.1 630.2 2.4 630 2.4L630 2.4Q629.85 2.4 629.57 2.05 629.3 1.7 629.07 1.18 628.85 0.65 628.65 0.1 628.45-0.45 628.45-0.85ZM677.1-3.2L677.1-3.2Q677.1-5.4 678.15-9.38 679.2-13.35 681.1-18.65L681.1-18.65Q684.2-27.1 686.93-32.73 689.65-38.35 692.25-41.5L692.25-41.5Q692.85-41.4 693.73-41 694.6-40.6 695.45-40.13 696.3-39.65 696.98-39.15 697.65-38.65 697.85-38.35L697.85-38.35Q693.95-33.75 691-28.45 688.05-23.15 685.6-16.3L685.6-16.3Q683.5-10.4 682.4-5.68 681.3-0.95 681.3 2.2L681.3 2.2Q681.3 3.05 681.3 3.25 681.3 3.45 681.35 3.65L681.35 3.65Q680.65 3.55 680.15 3.3 679.65 3.05 679.5 2.7L679.5 2.7Q679.4 2.45 678.95 1.98 678.5 1.5 678.15 1.25L678.15 1.25Q677.7 0.95 677.4-0.33 677.1-1.6 677.1-3.2ZM712.11-20.7L712.11-20.7Q711.91-17.6 711.01-15.38 710.11-13.15 708.43-11.48 706.76-9.8 704.36-8.45 701.96-7.1 698.76-5.85L698.76-5.85Q698.76-5.55 698.73-5.23 698.71-4.9 698.71-4.55L698.71-4.55Q698.71-3.9 698.81-3.2 698.91-2.5 699.16-1.9 699.41-1.3 699.86-0.93 700.31-0.55 701.01-0.55L701.01-0.55Q702.36-0.55 703.66-1.15 704.96-1.75 706.13-2.63 707.31-3.5 708.33-4.53 709.36-5.55 710.16-6.4L710.16-6.4Q710.66-5.95 711.01-5.55L711.01-5.55Q708.76-2.55 706.08-0.58 703.41 1.4 701.01 1.95L701.01 1.95Q697.56 1.55 695.63-0.58 693.71-2.7 693.71-5.7L693.71-5.7Q693.71-7.75 694.28-9.88 694.86-12 695.88-13.98 696.91-15.95 698.28-17.7 699.66-19.45 701.23-20.75 702.81-22.05 704.48-22.8 706.16-23.55 707.81-23.55L707.81-23.55Q710.11-23.25 712.11-20.7ZM708.66-19.05L708.66-19.05Q707.31-18.85 705.86-17.95 704.41-17.05 703.13-15.55 701.86-14.05 700.81-12.05 699.76-10.05 699.16-7.75L699.16-7.75Q703.16-9.75 705.81-12.68 708.46-15.6 708.66-19.05ZM725.31-19.15L722.46-19.15Q722.21-19.45 722.01-20.43 721.81-21.4 721.81-22.1L721.81-22.1Q723.11-22 724.31-21.93 725.51-21.85 726.51-21.8L726.51-21.8Q727.26-23.3 728.13-24.78 729.01-26.25 729.83-27.48 730.66-28.7 731.38-29.55 732.11-30.4 732.51-30.65L732.51-30.65Q733.01-30.65 733.78-30.48 734.56-30.3 735.36-30.03 736.16-29.75 736.81-29.45 737.46-29.15 737.71-28.85L737.71-28.85Q736.21-26.95 735.13-25.33 734.06-23.7 732.81-21.6L732.81-21.6Q733.81-21.6 734.83-21.65 735.86-21.7 736.91-21.8L736.91-21.8Q737.16-21.55 737.31-21.18 737.46-20.8 737.46-20.4L737.46-20.4Q735.01-19.5 731.51-19.4L731.51-19.4Q730.26-17 729.28-14.63 728.31-12.25 727.63-10.05 726.96-7.85 726.58-5.9 726.21-3.95 726.21-2.4L726.21-2.4Q726.21-0.2 727.86 0.05L727.86 0.05Q729.36-0.15 730.71-0.7 732.06-1.25 733.11-2.1L733.11-2.1Q733.41-1.65 733.46-1.35L733.46-1.35Q733.16-0.9 732.43-0.3 731.71 0.3 730.86 0.88 730.01 1.45 729.21 1.85 728.41 2.25 728.01 2.3L728.01 2.3Q726.76 2.25 725.51 1.75 724.26 1.25 723.23 0.5 722.21-0.25 721.56-1.18 720.91-2.1 720.91-3L720.91-3Q720.91-4.2 721.23-6.03 721.56-7.85 722.16-10 722.76-12.15 723.56-14.5 724.36-16.85 725.31-19.15L725.31-19.15ZM748.36-19.15L745.51-19.15Q745.26-19.45 745.06-20.43 744.86-21.4 744.86-22.1L744.86-22.1Q746.16-22 747.36-21.93 748.56-21.85 749.56-21.8L749.56-21.8Q750.31-23.3 751.18-24.78 752.06-26.25 752.88-27.48 753.71-28.7 754.43-29.55 755.16-30.4 755.56-30.65L755.56-30.65Q756.06-30.65 756.83-30.48 757.61-30.3 758.41-30.03 759.21-29.75 759.86-29.45 760.51-29.15 760.76-28.85L760.76-28.85Q759.26-26.95 758.18-25.33 757.11-23.7 755.86-21.6L755.86-21.6Q756.86-21.6 757.88-21.65 758.91-21.7 759.96-21.8L759.96-21.8Q760.21-21.55 760.36-21.18 760.51-20.8 760.51-20.4L760.51-20.4Q758.06-19.5 754.56-19.4L754.56-19.4Q753.31-17 752.33-14.63 751.36-12.25 750.68-10.05 750.01-7.85 749.63-5.9 749.26-3.95 749.26-2.4L749.26-2.4Q749.26-0.2 750.91 0.05L750.91 0.05Q752.41-0.15 753.76-0.7 755.11-1.25 756.16-2.1L756.16-2.1Q756.46-1.65 756.51-1.35L756.51-1.35Q756.21-0.9 755.48-0.3 754.76 0.3 753.91 0.88 753.06 1.45 752.26 1.85 751.46 2.25 751.06 2.3L751.06 2.3Q749.81 2.25 748.56 1.75 747.31 1.25 746.28 0.5 745.26-0.25 744.61-1.18 743.96-2.1 743.96-3L743.96-3Q743.96-4.2 744.28-6.03 744.61-7.85 745.21-10 745.81-12.15 746.61-14.5 747.41-16.85 748.36-19.15L748.36-19.15ZM783.51-20.7L783.51-20.7Q783.31-17.6 782.41-15.38 781.51-13.15 779.84-11.48 778.16-9.8 775.76-8.45 773.36-7.1 770.16-5.85L770.16-5.85Q770.16-5.55 770.14-5.23 770.11-4.9 770.11-4.55L770.11-4.55Q770.11-3.9 770.21-3.2 770.31-2.5 770.56-1.9 770.81-1.3 771.26-0.93 771.71-0.55 772.41-0.55L772.41-0.55Q773.76-0.55 775.06-1.15 776.36-1.75 777.54-2.63 778.71-3.5 779.74-4.53 780.76-5.55 781.56-6.4L781.56-6.4Q782.06-5.95 782.41-5.55L782.41-5.55Q780.16-2.55 777.49-0.58 774.81 1.4 772.41 1.95L772.41 1.95Q768.96 1.55 767.04-0.58 765.11-2.7 765.11-5.7L765.11-5.7Q765.11-7.75 765.69-9.88 766.26-12 767.29-13.98 768.31-15.95 769.69-17.7 771.06-19.45 772.64-20.75 774.21-22.05 775.89-22.8 777.56-23.55 779.21-23.55L779.21-23.55Q781.51-23.25 783.51-20.7ZM780.06-19.05L780.06-19.05Q778.71-18.85 777.26-17.95 775.81-17.05 774.54-15.55 773.26-14.05 772.21-12.05 771.16-10.05 770.56-7.75L770.56-7.75Q774.56-9.75 777.21-12.68 779.86-15.6 780.06-19.05ZM790.06-1L790.06-1Q790.31-2.45 790.94-4.83 791.56-7.2 792.41-9.88 793.26-12.55 794.21-15.25 795.16-17.95 796.06-20.1L796.06-20.1Q796.71-21.65 797.21-22.53 797.71-23.4 798.31-24L798.31-24Q799.01-23.9 799.76-23.65 800.51-23.4 801.21-23.05 801.91-22.7 802.46-22.33 803.01-21.95 803.31-21.6L803.31-21.6Q801.96-20 800.94-17.95 799.91-15.9 798.86-12.7L798.86-12.7Q801.56-15.1 803.64-17.3 805.71-19.5 807.51-22.2L807.51-22.2Q807.81-22.45 808.56-22.45L808.56-22.45Q809.26-22.45 809.91-22.23 810.56-22 810.81-21.6L810.81-21.6Q809.91-19.2 809.91-16.85L809.91-16.85Q809.91-14.65 810.56-13.55L810.56-13.55Q810.51-13.25 809.89-12.4 809.26-11.55 808.51-10.8L808.51-10.8Q807.16-11.5 806.11-12.73 805.06-13.95 804.56-15.4L804.56-15.4Q802.21-13.75 800.56-12.18 798.91-10.6 797.74-8.68 796.56-6.75 795.74-4.25 794.91-1.75 794.16 1.7L794.16 1.7Q793.71 1.65 793.09 1.38 792.46 1.1 791.84 0.7 791.21 0.3 790.71-0.15 790.21-0.6 790.06-1ZM833.32-19.9L833.32-19.9Q833.27-18.95 832.99-17.93 832.72-16.9 832.32-16.07 831.92-15.25 831.47-14.7 831.02-14.15 830.62-14.15L830.62-14.15Q830.07-14.2 829.97-14.9L829.97-14.9Q829.97-15.05 830.09-15.38 830.22-15.7 830.37-16.1 830.52-16.5 830.64-16.9 830.77-17.3 830.77-17.6L830.77-17.6Q830.77-18.3 830.44-18.78 830.12-19.25 829.57-19.25L829.57-19.25Q827.57-19.25 826.52-16.75 825.47-14.25 825.47-9.4L825.47-9.4Q825.47-8.9 825.52-8.8L825.52-8.8Q826.57-8.85 827.39-8.88 828.22-8.9 829.02-8.9L829.02-8.9Q829.07-8.8 829.07-8.5L829.07-8.5Q829.07-8.05 828.87-7.85L828.87-7.85Q827.72-7.6 827.04-7.43 826.37-7.25 826.02-7.1 825.67-6.95 825.59-6.78 825.52-6.6 825.52-6.3L825.52-6.3Q825.52-5.9 825.54-5.5 825.57-5.1 825.57-4.5L825.57-4.5Q825.57-0.3 823.29 2.25 821.02 4.8 816.97 5.2L816.97 5.2Q816.27 5.15 815.52 4.8 814.77 4.45 814.09 3.9 813.42 3.35 812.92 2.68 812.42 2 812.22 1.3L812.22 1.3Q812.22-0.6 813.02-2.33 813.82-4.05 815.19-5.38 816.57-6.7 818.44-7.53 820.32-8.35 822.52-8.5L822.52-8.5Q822.52-9.75 822.27-10.95 822.02-12.15 821.74-13.28 821.47-14.4 821.22-15.48 820.97-16.55 820.97-17.6L820.97-17.6Q820.97-18.95 821.52-20.28 822.07-21.6 822.97-22.73 823.87-23.85 825.07-24.65 826.27-25.45 827.57-25.75L827.57-25.75Q828.12-25.6 829.04-24.88 829.97-24.15 830.87-23.25 831.77-22.35 832.47-21.43 833.17-20.5 833.32-19.9ZM816.82 2.9L816.82 2.9Q818.02 2.4 819.09 1.45 820.17 0.5 820.97-0.7 821.77-1.9 822.24-3.25 822.72-4.6 822.72-5.9L822.72-5.9Q821.72-5.75 820.52-4.98 819.32-4.2 818.27-3.13 817.22-2.05 816.52-0.9 815.82 0.25 815.82 1.1L815.82 1.1Q815.82 2.2 816.82 2.9Z" opacity="1" transform="matrix(1,0,0,1,0,0)" fill="#ffffff" class="slogan-text-1" data-fill-palette-color="secondary" id="text-1"></path></svg></g></svg></g></svg></g></svg></g><g transform="matrix(1,0,0,1,62.34488230287073,0)"><svg viewBox="0 0 120.96375219425849 73.47462653598095" height="73.47462653598095" width="120.96375219425849"><g><svg xmlns="http://www.w3.org/2000/svg" xmlns:xlink="http://www.w3.org/1999/xlink" version="1.1" x="8" y="0" viewBox="0 0 100 70" enable-background="new 0 0 100 70" xml:space="preserve" height="73.47462653598095" width="104.96375219425849" class="icon-icon-0" data-fill-palette-color="accent" id="icon-0"><path d="M92 0H8L0 13h0.001C0.013 17.41 3.587 20.979 8 20.979c2.393 0 4.534-1.055 6-2.719 1.466 1.664 3.607 2.719 6 2.719s4.534-1.055 6-2.719c1.466 1.664 3.607 2.719 6 2.719s4.534-1.055 6-2.719c1.466 1.664 3.607 2.719 6 2.719s4.534-1.055 6-2.719c1.466 1.664 3.606 2.719 6 2.719s4.534-1.055 6-2.719c1.466 1.664 3.606 2.719 6 2.719s4.534-1.055 6-2.719c1.466 1.664 3.606 2.719 6 2.719s4.534-1.055 6-2.719c1.466 1.664 3.606 2.719 6 2.719 4.413 0 7.987-3.569 7.999-7.979H100L92 0z" fill="#ffffff" data-fill-palette-color="accent"></path><path d="M86 23.365c-1.807 1.205-3.873 1.859-6 1.859s-4.193-0.654-6-1.859c-1.807 1.205-3.873 1.859-6 1.859s-4.193-0.654-6-1.859c-1.807 1.205-3.873 1.859-6 1.859s-4.193-0.654-6-1.859c-1.807 1.205-3.873 1.859-6 1.859s-4.193-0.654-6-1.859c-1.807 1.205-3.873 1.859-6 1.859s-4.193-0.654-6-1.859c-1.807 1.205-3.873 1.859-6 1.859s-4.193-0.654-6-1.859c-1.807 1.205-3.873 1.859-6 1.859V70h9V34h18v36h57V25.224C89.873 25.224 87.807 24.57 86 23.365zM83 57H44V34h39V57z" fill="#ffffff" data-fill-palette-color="accent"></path></svg></g></svg></g><g><rect width="15.04741414287075" height="2.585931478882542" y="69.8886950570984" x="183.30863449712922" fill="#ffffff" data-fill-palette-color="secondary"></rect><rect width="15.04741414287075" height="2.585931478882542" y="69.8886950570984" x="47.29746815999998" fill="#ffffff" data-fill-palette-color="secondary"></rect></g></svg></g></svg></g><g><path d="M103.475 45.837A122.216 122.216 0 0 1 292.045 45.837L289.471 45.837A119.643 119.643 0 0 0 106.049 45.837L103.475 45.837M103.475 201.363A122.216 122.216 0 0 0 292.045 201.363L289.471 201.363A119.643 119.643 0 0 1 106.049 201.363L103.475 201.363" fill="#ffffff" stroke="transparent" data-fill-palette-color="tertiary"></path></g></svg></g><defs></defs></svg><rect width="395.52" height="247.2" fill="none" stroke="none" visibility="hidden"></rect></g></svg></g></svg>